<svg xmlns="http://www.w3.org/2000/svg" width="24" height="24" viewBox="0 0 24 24">
  <defs>
    <linearGradient id="bg" x1="0" y1="0" x2="1" y2="1">
      <stop offset="0%" stop-color="#FF9900" />
      <stop offset="100%" stop-color="#d77100" />
    </linearGradient>
    <linearGradient id="border" x1="0" y1="0" x2="1" y2="1">
      <stop offset="0%" stop-color="white" stop-opacity="0.6" />
      <stop offset="100%" stop-color="white" stop-opacity="0.1" />
    </linearGradient>
    <filter id="shadow">
      <feDropShadow dx="0" dy="2" stdDeviation="2" flood-color="black" flood-opacity="0.3" />
    </filter>
  </defs>
  <!-- Base Shape -->
  <rect x="1" y="1" width="22" height="22" rx="6" fill="url(#bg)" filter="url(#shadow)" />
  <!-- Glass Reflection -->
  <path d="M 1 7 Q 1 1 7 1 L 17 1 Q 23 1 23 7 L 23 12 Q 12 10 1 12 Z" fill="white" fill-opacity="0.15" />
  <!-- Inner Content -->
  <path d="M14.93 17.5c-1.89.84-4.59 1.34-6.84 1.34-2.85 0-4.99-.44-6.26-1.04-.37-.17-.4-.68-.04-.89.36-.21.84-.11 1.2.06 1.15.54 3.1 1.01 5.48 1.01 2.27 0 4.67-.47 6.46-1.22.42-.18.84.1 1.02.44.18.34-.14.77-1.02 1.3M23.6 15.65c-.17.38-1.58.26-2.58.11l-3.32-.47c-.52-.08-.66-.66-.17-.89l3.52-1.63c.61-.28 1.25.04 1.3.73.01.21-.19.98-.75 2.15" fill="white" transform="scale(0.55) translate(9 9)" />
  <!-- Border -->
  <rect x="1" y="1" width="22" height="22" rx="6" fill="none" stroke="url(#border)" stroke-width="0.5" />
</svg>