<svg xmlns="http://www.w3.org/2000/svg" width="24" height="24" viewBox="0 0 24 24">
  <defs>
    <linearGradient id="bg" x1="0" y1="0" x2="1" y2="1">
      <stop offset="0%" stop-color="#18181B" />
      <stop offset="100%" stop-color="#000000" />
    </linearGradient>
    <linearGradient id="border" x1="0" y1="0" x2="1" y2="1">
      <stop offset="0%" stop-color="white" stop-opacity="0.6" />
      <stop offset="100%" stop-color="white" stop-opacity="0.1" />
    </linearGradient>
    <filter id="shadow">
      <feDropShadow dx="0" dy="2" stdDeviation="2" flood-color="black" flood-opacity="0.3" />
    </filter>
  </defs>
  <!-- Base Shape -->
  <rect x="1" y="1" width="22" height="22" rx="6" fill="url(#bg)" filter="url(#shadow)" />
  <!-- Glass Reflection -->
  <path d="M 1 7 Q 1 1 7 1 L 17 1 Q 23 1 23 7 L 23 12 Q 12 10 1 12 Z" fill="white" fill-opacity="0.15" />
  <!-- Inner Content -->
  <path d="m23.365 13.556-1.442-2.895V8.994c0-2.764-2.218-5.002-4.954-5.002h-2.464c.178-.367.276-.779.276-1.213A2.77 2.77 0 0 0 12.018 0a2.77 2.77 0 0 0-2.763 2.779c0 .434.098.846.276 1.213H7.067c-2.736 0-4.954 2.238-4.954 5.002v1.667L.64 13.549c-.149.29-.149.636 0 .927l1.472 2.855v1.667C2.113 21.762 4.33 24 7.067 24h9.902c2.736 0 4.954-2.238 4.954-5.002V17.33l1.44-2.865c.143-.286.143-.622.002-.91m-12.854 2.36a2.27 2.27 0 0 1-2.261 2.273 2.27 2.27 0 0 1-2.261-2.273v-4.042A2.27 2.27 0 0 1 8.249 9.6a2.267 2.267 0 0 1 2.262 2.274zm7.285 0a2.27 2.27 0 0 1-2.26 2.273 2.27 2.27 0 0 1-2.262-2.273v-4.042A2.267 2.267 0 0 1 15.535 9.6a2.267 2.267 0 0 1 2.261 2.274z" fill="white" transform="scale(0.55) translate(9 9)" />
  <!-- Border -->
  <rect x="1" y="1" width="22" height="22" rx="6" fill="none" stroke="url(#border)" stroke-width="0.5" />
</svg>