<svg xmlns="http://www.w3.org/2000/svg" width="24" height="24" viewBox="0 0 24 24">
  <defs>
    <linearGradient id="bg" x1="0" y1="0" x2="1" y2="1">
      <stop offset="0%" stop-color="#FF5A50" />
      <stop offset="100%" stop-color="#d73228" />
    </linearGradient>
    <linearGradient id="border" x1="0" y1="0" x2="1" y2="1">
      <stop offset="0%" stop-color="white" stop-opacity="0.6" />
      <stop offset="100%" stop-color="white" stop-opacity="0.1" />
    </linearGradient>
    <filter id="shadow">
      <feDropShadow dx="0" dy="2" stdDeviation="2" flood-color="black" flood-opacity="0.3" />
    </filter>
  </defs>
  <!-- Base Shape -->
  <rect x="1" y="1" width="22" height="22" rx="6" fill="url(#bg)" filter="url(#shadow)" />
  <!-- Glass Reflection -->
  <path d="M 1 7 Q 1 1 7 1 L 17 1 Q 23 1 23 7 L 23 12 Q 12 10 1 12 Z" fill="white" fill-opacity="0.15" />
  <!-- Inner Content -->
  <path d="M12.482.18C7.161 1.319 1.478 9.069 1.426 15.372c-.051 5.527 3.1 8.68 8.68 8.627 6.716-.05 14.259-6.87 12.09-10.9-.672-1.292-1.396-1.344-2.687-.207-1.602 1.395-1.654.31-.207-2.893 1.757-3.98 1.705-5.322-.31-7.544C17.03.388 14.962-.388 12.482.181Zm5.322 2.068c2.273 2.015 2.376 4.236.465 8.42-1.395 3.1-2.17 3.515-3.824 1.86-1.24-1.24-1.343-3.46-.258-6.044 1.137-2.635.982-3.1-.568-1.653-3.72 3.358-6.458 9.765-5.424 12.503.464 1.189.825 1.395 2.737 1.395 2.79 0 6.303-1.705 7.957-3.926 1.756-2.274 2.79-2.274 2.79-.052 0 3.875-6.459 8.627-11.625 8.627-6.251 0-9.351-4.752-7.491-11.47.878-2.995 4.443-7.904 7.077-9.66 3.255-2.17 5.684-2.17 8.164 0z" fill="white" transform="scale(0.55) translate(9 9)" />
  <!-- Border -->
  <rect x="1" y="1" width="22" height="22" rx="6" fill="none" stroke="url(#border)" stroke-width="0.5" />
</svg>