<svg xmlns="http://www.w3.org/2000/svg" width="24" height="24" viewBox="0 0 24 24">
  <defs>
    <linearGradient id="bg" x1="0" y1="0" x2="1" y2="1">
      <stop offset="0%" stop-color="#000000" />
      <stop offset="100%" stop-color="#000000" />
    </linearGradient>
    <linearGradient id="border" x1="0" y1="0" x2="1" y2="1">
      <stop offset="0%" stop-color="white" stop-opacity="0.6" />
      <stop offset="100%" stop-color="white" stop-opacity="0.1" />
    </linearGradient>
    <filter id="shadow">
      <feDropShadow dx="0" dy="2" stdDeviation="2" flood-color="black" flood-opacity="0.3" />
    </filter>
  </defs>
  <!-- Base Shape -->
  <rect x="1" y="1" width="22" height="22" rx="6" fill="url(#bg)" filter="url(#shadow)" />
  <!-- Glass Reflection -->
  <path d="M 1 7 Q 1 1 7 1 L 17 1 Q 23 1 23 7 L 23 12 Q 12 10 1 12 Z" fill="white" fill-opacity="0.15" />
  <!-- Inner Content -->
  <path d="M11.503.131 1.891 5.678a.84.84 0 0 0-.42.726v11.188c0 .3.162.575.42.724l9.609 5.55a1 1 0 0 0 .998 0l9.61-5.55a.84.84 0 0 0 .42-.724V6.404a.84.84 0 0 0-.42-.726L12.497.131a1.01 1.01 0 0 0-.996 0M2.657 6.338h18.55c.263 0 .43.287.297.515L12.23 22.918c-.062.107-.229.064-.229-.06V12.335a.59.59 0 0 0-.295-.51l-9.11-5.257c-.109-.063-.064-.23.061-.23" fill="white" transform="scale(0.55) translate(9 9)" />
  <!-- Border -->
  <rect x="1" y="1" width="22" height="22" rx="6" fill="none" stroke="url(#border)" stroke-width="0.5" />
</svg>