<svg xmlns="http://www.w3.org/2000/svg" width="24" height="24" viewBox="0 0 24 24">
  <defs>
    <linearGradient id="bg" x1="0" y1="0" x2="1" y2="1">
      <stop offset="0%" stop-color="#0033FF" />
      <stop offset="100%" stop-color="#000bd7" />
    </linearGradient>
    <linearGradient id="border" x1="0" y1="0" x2="1" y2="1">
      <stop offset="0%" stop-color="white" stop-opacity="0.6" />
      <stop offset="100%" stop-color="white" stop-opacity="0.1" />
    </linearGradient>
    <filter id="shadow">
      <feDropShadow dx="0" dy="2" stdDeviation="2" flood-color="black" flood-opacity="0.3" />
    </filter>
  </defs>
  <!-- Base Shape -->
  <rect x="1" y="1" width="22" height="22" rx="6" fill="url(#bg)" filter="url(#shadow)" />
  <!-- Glass Reflection -->
  <path d="M 1 7 Q 1 1 7 1 L 17 1 Q 23 1 23 7 L 23 12 Q 12 10 1 12 Z" fill="white" fill-opacity="0.15" />
  <!-- Inner Content -->
  <path d="m22.417 9.334-1.333 4.333-1.334-4.333h-1.583L20.1 14.94c.2.583-.14 1.06-.756 1.06h-.678v1.334h.996c.869 0 1.65-.55 1.945-1.367L24 9.334ZM2.833 6.667H0v8.666h2.833c3.5 0 4.5-2 4.5-4.333s-1-4.334-4.5-4.334zM2.866 14H1.6V8h1.266c2.013 0 2.867.988 2.867 3s-.854 3-2.867 3m11-5.267v.6h-1.532v1.334h1.533V14h-2.534V9.334H8v1.334h1.867V14h-2.2v1.334h10V14h-2.332v-3.333h2.333V9.334h-2.333V8h2.333V6.667h-1.733a2.07 2.07 0 0 0-2.067 2.067Zm-3.266-.2c.681 0 .933-.417.933-.933 0-.515-.252-.933-.933-.933-.68 0-.934.418-.934.933s.253.934.934.934" fill="white" transform="scale(0.55) translate(9 9)" />
  <!-- Border -->
  <rect x="1" y="1" width="22" height="22" rx="6" fill="none" stroke="url(#border)" stroke-width="0.5" />
</svg>