<svg xmlns="http://www.w3.org/2000/svg" width="24" height="24" viewBox="0 0 24 24">
  <defs>
    <linearGradient id="bg" x1="0" y1="0" x2="1" y2="1">
      <stop offset="0%" stop-color="#2563EB" />
      <stop offset="100%" stop-color="#003bc3" />
    </linearGradient>
    <linearGradient id="border" x1="0" y1="0" x2="1" y2="1">
      <stop offset="0%" stop-color="white" stop-opacity="0.6" />
      <stop offset="100%" stop-color="white" stop-opacity="0.1" />
    </linearGradient>
    <filter id="shadow">
      <feDropShadow dx="0" dy="2" stdDeviation="2" flood-color="black" flood-opacity="0.3" />
    </filter>
  </defs>
  <!-- Base Shape -->
  <rect x="1" y="1" width="22" height="22" rx="6" fill="url(#bg)" filter="url(#shadow)" />
  <!-- Glass Reflection -->
  <path d="M 1 7 Q 1 1 7 1 L 17 1 Q 23 1 23 7 L 23 12 Q 12 10 1 12 Z" fill="white" fill-opacity="0.15" />
  <!-- Inner Content -->
  <path d="M12 2C6.48 2 2 6.48 2 12s4.48 10 10 10 10-4.48 10-10S17.52 2 12 2zm0 18c-4.41 0-8-3.59-8-8s3.59-8 8-8 8 3.59 8 8-3.59 8-8 8zm-2-5.5V9.5c0-.83.67-1.5 1.5-1.5h1c.83 0 1.5.67 1.5 1.5v5c0 .83-.67 1.5-1.5 1.5h-1c-.83 0-1.5-.67-1.5-1.5zM11 9.5v5h2v-5h-2z" fill="white" transform="scale(0.55) translate(9 9)" />
  <!-- Border -->
  <rect x="1" y="1" width="22" height="22" rx="6" fill="none" stroke="url(#border)" stroke-width="0.5" />
</svg>