<svg xmlns="http://www.w3.org/2000/svg" width="24" height="24" viewBox="0 0 24 24">
  <defs>
    <linearGradient id="bg" x1="0" y1="0" x2="1" y2="1">
      <stop offset="0%" stop-color="#0078D4" />
      <stop offset="100%" stop-color="#0050ac" />
    </linearGradient>
    <linearGradient id="border" x1="0" y1="0" x2="1" y2="1">
      <stop offset="0%" stop-color="white" stop-opacity="0.6" />
      <stop offset="100%" stop-color="white" stop-opacity="0.1" />
    </linearGradient>
    <filter id="shadow">
      <feDropShadow dx="0" dy="2" stdDeviation="2" flood-color="black" flood-opacity="0.3" />
    </filter>
  </defs>
  <!-- Base Shape -->
  <rect x="1" y="1" width="22" height="22" rx="6" fill="url(#bg)" filter="url(#shadow)" />
  <!-- Glass Reflection -->
  <path d="M 1 7 Q 1 1 7 1 L 17 1 Q 23 1 23 7 L 23 12 Q 12 10 1 12 Z" fill="white" fill-opacity="0.15" />
  <!-- Inner Content -->
  <path d="M11.4 24l-3.26-3.87a9.23 9.23 0 01-1.34-11.75l-.2-.23c-1.38 1.4-2.14 3.32-2.14 5.3 0 2.22.95 4.3 2.62 5.76l2.12 1.84v3.83l2.2-2.88z M22.25 15.65v-3.76L20 8.87l-2.34.82L19.42 12v3.3l-5.63 3.68v2.4l8.46-5.73z M12.87 2.06a9.34 9.34 0 016.54 3.12l-1.63 1.9a7 7 0 00-4.9-2.3c-3.1 0-5.75 2.15-6.62 5.07l-2.37-.8c1.17-3.9 4.74-6.99 8.98-6.99z" fill="white" transform="scale(0.55) translate(9 9)" />
  <!-- Border -->
  <rect x="1" y="1" width="22" height="22" rx="6" fill="none" stroke="url(#border)" stroke-width="0.5" />
</svg>