<svg xmlns="http://www.w3.org/2000/svg" width="24" height="24" viewBox="0 0 24 24">
  <defs>
    <linearGradient id="bg" x1="0" y1="0" x2="1" y2="1">
      <stop offset="0%" stop-color="#000000" />
      <stop offset="100%" stop-color="#000000" />
    </linearGradient>
    <linearGradient id="border" x1="0" y1="0" x2="1" y2="1">
      <stop offset="0%" stop-color="white" stop-opacity="0.6" />
      <stop offset="100%" stop-color="white" stop-opacity="0.1" />
    </linearGradient>
    <filter id="shadow">
      <feDropShadow dx="0" dy="2" stdDeviation="2" flood-color="black" flood-opacity="0.3" />
    </filter>
  </defs>
  <!-- Base Shape -->
  <rect x="1" y="1" width="22" height="22" rx="6" fill="url(#bg)" filter="url(#shadow)" />
  <!-- Glass Reflection -->
  <path d="M 1 7 Q 1 1 7 1 L 17 1 Q 23 1 23 7 L 23 12 Q 12 10 1 12 Z" fill="white" fill-opacity="0.15" />
  <!-- Inner Content -->
  <path d="M11.999 3.201C5.372 3.201 0 8.528 0 15.101V20.8h2.212v-.568c0-2.666 2.178-4.827 4.866-4.827 2.688 0 4.866 2.16 4.866 4.827v.568h2.212v-.568c0-3.877-3.17-7.019-7.078-7.019A7.075 7.075 0 0 0 2.992 14.5a7.355 7.355 0 0 1 6.568-4.016c4.057 0 7.347 3.264 7.347 7.287V20.8h2.212V17.77c0-5.235-4.28-9.481-9.56-9.481a9.563 9.563 0 0 0-6.217 2.28A9.795 9.795 0 0 1 12 5.393c5.406 0 9.788 4.346 9.788 9.707V20.8H24V15.1c-.001-6.573-5.373-11.9-12.001-11.9Z" fill="white" transform="scale(0.55) translate(9 9)" />
  <!-- Border -->
  <rect x="1" y="1" width="22" height="22" rx="6" fill="none" stroke="url(#border)" stroke-width="0.5" />
</svg>