<svg xmlns="http://www.w3.org/2000/svg" width="24" height="24" viewBox="0 0 24 24">
  <defs>
    <linearGradient id="bg" x1="0" y1="0" x2="1" y2="1">
      <stop offset="0%" stop-color="#412991" />
      <stop offset="100%" stop-color="#190169" />
    </linearGradient>
    <linearGradient id="border" x1="0" y1="0" x2="1" y2="1">
      <stop offset="0%" stop-color="white" stop-opacity="0.6" />
      <stop offset="100%" stop-color="white" stop-opacity="0.1" />
    </linearGradient>
    <filter id="shadow">
      <feDropShadow dx="0" dy="2" stdDeviation="2" flood-color="black" flood-opacity="0.3" />
    </filter>
  </defs>
  <!-- Base Shape -->
  <rect x="1" y="1" width="22" height="22" rx="6" fill="url(#bg)" filter="url(#shadow)" />
  <!-- Glass Reflection -->
  <path d="M 1 7 Q 1 1 7 1 L 17 1 Q 23 1 23 7 L 23 12 Q 12 10 1 12 Z" fill="white" fill-opacity="0.15" />
  <!-- Inner Content -->
  <path d="M22.2819 9.8211a5.9847 5.9847 0 0 0-.5157-4.9108 6.0462 6.0462 0 0 0-6.5098-2.9A6.0651 6.0651 0 0 0 4.9807 4.1818a5.9847 5.9847 0 0 0-3.9977 2.9 6.0462 6.0462 0 0 0 .7427 7.0966 5.98 5.98 0 0 0 .511 4.9107 6.051 6.051 0 0 0 6.5146 2.9001A5.9847 5.9847 0 0 0 13.2599 24a6.033 6.033 0 0 0 5.438-3.172 5.96 5.96 0 0 0 3.9293-2.9001 6.056 6.056 0 0 0-.3453-8.1068ZM10.5186 22.3831a4.237 4.237 0 0 1-2.859-1.1448l.0673-.0382 5.4851-3.1614a.9255.9255 0 0 0 .4631-.8061v-6.937l2.0006 1.155a.083.083 0 0 1 .0427.0716v5.3371a4.2562 4.2562 0 0 1-5.2014 5.5255ZM4.1165 17.151a4.2464 4.2464 0 0 1-.806-2.9664l.0626.0475 5.4852 3.1662a.916.916 0 0 0 .931-.0047l6.0094-3.4682v2.308a.0877.0877 0 0 1-.0427.076l-4.6205 2.6687a4.2562 4.2562 0 0 1-7.019-1.827ZM2.2536 9.387A4.2657 4.2657 0 0 1 4.31 6.6433l-.0333.076 2.738 4.7431a.9255.9255 0 0 0 .4678.403l6.0046 3.473-2.0006 1.155a.083.083 0 0 1-.0853 0L6.7806 13.824a4.261 4.261 0 0 1-4.527-4.437Zm11.233-7.14a4.2464 4.2464 0 0 1 2.859 1.1449l-.0673.0381-5.4852 3.1614a.9255.9255 0 0 0-.463.8062v6.9369L8.3305 13.18a.083.083 0 0 1-.0428-.0715V7.7712a4.2562 4.2562 0 0 1 5.2005-5.5255Zm6.3985 5.232a4.2464 4.2464 0 0 1 .806 2.9664l-.0626-.0475-5.4852-3.1661a.916.916 0 0 0-.931.0047l-6.0094 3.4682V8.3967a.0877.0877 0 0 1 .0427-.0761l4.6205-2.6687a4.2562 4.2562 0 0 1 7.019 1.827Zm1.861 7.764a4.2657 4.2657 0 0 1-2.0564 2.7437l.0333-.076-2.738-4.7431a.9255.9255 0 0 0-.4678-.403l-6.0046-3.473 2.0006-1.155a.083.083 0 0 1 .0853 0l4.6205 2.6688a4.261 4.261 0 0 1 4.527 4.437ZM8.8687 14.887l-3.4682-2.0005 3.4682-2.0006v4.0011Zm6.2625 0v-4.001l3.4683 2.0005-3.4683 2.0006ZM12 10.3791l-2.6006 1.5003 2.6006 1.5003 2.6006-1.5003L12 10.379Z" fill="white" transform="scale(0.55) translate(9 9)" />
  <!-- Border -->
  <rect x="1" y="1" width="22" height="22" rx="6" fill="none" stroke="url(#border)" stroke-width="0.5" />
</svg>