<svg xmlns="http://www.w3.org/2000/svg" width="24" height="24" viewBox="0 0 24 24">
  <defs>
    <linearGradient id="bg" x1="0" y1="0" x2="1" y2="1">
      <stop offset="0%" stop-color="#1FB8CD" />
      <stop offset="100%" stop-color="#0090a5" />
    </linearGradient>
    <linearGradient id="border" x1="0" y1="0" x2="1" y2="1">
      <stop offset="0%" stop-color="white" stop-opacity="0.6" />
      <stop offset="100%" stop-color="white" stop-opacity="0.1" />
    </linearGradient>
    <filter id="shadow">
      <feDropShadow dx="0" dy="2" stdDeviation="2" flood-color="black" flood-opacity="0.3" />
    </filter>
  </defs>
  <!-- Base Shape -->
  <rect x="1" y="1" width="22" height="22" rx="6" fill="url(#bg)" filter="url(#shadow)" />
  <!-- Glass Reflection -->
  <path d="M 1 7 Q 1 1 7 1 L 17 1 Q 23 1 23 7 L 23 12 Q 12 10 1 12 Z" fill="white" fill-opacity="0.15" />
  <!-- Inner Content -->
  <path d="M22.3977 7.0896h-2.3106V.0676l-7.5094 6.3542V.1577h-1.1554v6.1966L4.4904 0v7.0896H1.6023v10.3976h2.8882V24l6.932-6.3591v6.2005h1.1554v-6.0469l6.9318 6.1807v-6.4879h2.8882V7.0896zm-3.4657-4.531v4.531h-5.355l5.355-4.531zm-13.2862.0676 4.8691 4.4634H5.6458V2.6262zM2.7576 16.332V8.245h7.8476l-6.1149 6.1147v1.9723H2.7576zm2.8882 5.0404v-3.8852h.0001v-2.6488l5.7763-5.7764v7.0111l-5.7764 5.2993zm12.7086.0248-5.7766-5.1509V9.0618l5.7766 5.7766v6.5588zm2.8882-5.0652h-1.733v-1.9723L13.3948 8.245h7.8478v8.087z" fill="white" transform="scale(0.55) translate(9 9)" />
  <!-- Border -->
  <rect x="1" y="1" width="22" height="22" rx="6" fill="none" stroke="url(#border)" stroke-width="0.5" />
</svg>