<svg xmlns="http://www.w3.org/2000/svg" width="24" height="24" viewBox="0 0 24 24">
  <defs>
    <linearGradient id="bg" x1="0" y1="0" x2="1" y2="1">
      <stop offset="0%" stop-color="#000000" />
      <stop offset="100%" stop-color="#000000" />
    </linearGradient>
    <linearGradient id="border" x1="0" y1="0" x2="1" y2="1">
      <stop offset="0%" stop-color="white" stop-opacity="0.6" />
      <stop offset="100%" stop-color="white" stop-opacity="0.1" />
    </linearGradient>
    <filter id="shadow">
      <feDropShadow dx="0" dy="2" stdDeviation="2" flood-color="black" flood-opacity="0.3" />
    </filter>
  </defs>
  <!-- Base Shape -->
  <rect x="1" y="1" width="22" height="22" rx="6" fill="url(#bg)" filter="url(#shadow)" />
  <!-- Glass Reflection -->
  <path d="M 1 7 Q 1 1 7 1 L 17 1 Q 23 1 23 7 L 23 12 Q 12 10 1 12 Z" fill="white" fill-opacity="0.15" />
  <!-- Inner Content -->
  <path d="M24 10.262v2.712h-9.518V24h-3.034V10.262zm0-5.131v2.717H8.755V24H5.722V5.131zM24 0v2.717H3.034V24H0V0z" fill="white" transform="scale(0.55) translate(9 9)" />
  <!-- Border -->
  <rect x="1" y="1" width="22" height="22" rx="6" fill="none" stroke="url(#border)" stroke-width="0.5" />
</svg>