<svg xmlns="http://www.w3.org/2000/svg" width="24" height="24" viewBox="0 0 24 24">
  <defs>
    <linearGradient id="bg" x1="0" y1="0" x2="1" y2="1">
      <stop offset="0%" stop-color="#c32822" />
      <stop offset="100%" stop-color="#9b0000" />
    </linearGradient>
    <linearGradient id="border" x1="0" y1="0" x2="1" y2="1">
      <stop offset="0%" stop-color="white" stop-opacity="0.6" />
      <stop offset="100%" stop-color="white" stop-opacity="0.1" />
    </linearGradient>
    <filter id="shadow">
      <feDropShadow dx="0" dy="2" stdDeviation="2" flood-color="black" flood-opacity="0.3" />
    </filter>
  </defs>
  <!-- Base Shape -->
  <rect x="1" y="1" width="22" height="22" rx="6" fill="url(#bg)" filter="url(#shadow)" />
  <!-- Glass Reflection -->
  <path d="M 1 7 Q 1 1 7 1 L 17 1 Q 23 1 23 7 L 23 12 Q 12 10 1 12 Z" fill="white" fill-opacity="0.15" />
  <!-- Inner Content -->
  <g><path d="M12 6 L18 16 L6 16 Z" fill="none" stroke="white" stroke-width="2" stroke-linejoin="round" />
  <circle cx="12" cy="13" r="1.5" fill="white" />
  <circle cx="19.995126616152767" cy="12.279195973620007" r="1.5" fill="white" fill-opacity="0.7" />
  <circle cx="19.980512402078595" cy="12.558051789953002" r="1.5" fill="white" fill-opacity="0.7" />
  <circle cx="19.956175162946188" cy="12.836227706141228" r="1.5" fill="white" fill-opacity="0.7" />
  <path d="M4 12 L8 12 M16 12 L20 12" stroke="white" stroke-width="1.5" stroke-opacity="0.4" stroke-linecap="round" /></g>
  <!-- Border -->
  <rect x="1" y="1" width="22" height="22" rx="6" fill="none" stroke="url(#border)" stroke-width="0.5" />
</svg>