<svg xmlns="http://www.w3.org/2000/svg" width="24" height="24" viewBox="0 0 24 24">
  <defs>
    <linearGradient id="bg" x1="0" y1="0" x2="1" y2="1">
      <stop offset="0%" stop-color="#c32265" />
      <stop offset="100%" stop-color="#9b003d" />
    </linearGradient>
    <linearGradient id="border" x1="0" y1="0" x2="1" y2="1">
      <stop offset="0%" stop-color="white" stop-opacity="0.6" />
      <stop offset="100%" stop-color="white" stop-opacity="0.1" />
    </linearGradient>
    <filter id="shadow">
      <feDropShadow dx="0" dy="2" stdDeviation="2" flood-color="black" flood-opacity="0.3" />
    </filter>
  </defs>
  <!-- Base Shape -->
  <rect x="1" y="1" width="22" height="22" rx="6" fill="url(#bg)" filter="url(#shadow)" />
  <!-- Glass Reflection -->
  <path d="M 1 7 Q 1 1 7 1 L 17 1 Q 23 1 23 7 L 23 12 Q 12 10 1 12 Z" fill="white" fill-opacity="0.15" />
  <!-- Inner Content -->
  <g><path d="M12 6 L18 16 L6 16 Z" fill="none" stroke="white" stroke-width="2" stroke-linejoin="round" />
  <circle cx="12" cy="13" r="1.5" fill="white" />
  <circle cx="20.15677008332985" cy="8.196435644333707" r="1.5" fill="white" fill-opacity="0.7" />
  <circle cx="17.785088487178854" cy="5.105600011929197" r="1.5" fill="white" fill-opacity="0.7" />
  <circle cx="14.329371405922682" cy="3.306667563398385" r="1.5" fill="white" fill-opacity="0.7" />
  <path d="M12 4 L12 8 M12 16 L12 20" stroke="white" stroke-width="1.5" stroke-opacity="0.4" stroke-linecap="round" /></g>
  <!-- Border -->
  <rect x="1" y="1" width="22" height="22" rx="6" fill="none" stroke="url(#border)" stroke-width="0.5" />
</svg>