<svg xmlns="http://www.w3.org/2000/svg" width="24" height="24" viewBox="0 0 24 24">
  <defs>
    <linearGradient id="bg" x1="0" y1="0" x2="1" y2="1">
      <stop offset="0%" stop-color="#0B100F" />
      <stop offset="100%" stop-color="#000000" />
    </linearGradient>
    <linearGradient id="border" x1="0" y1="0" x2="1" y2="1">
      <stop offset="0%" stop-color="white" stop-opacity="0.6" />
      <stop offset="100%" stop-color="white" stop-opacity="0.1" />
    </linearGradient>
    <filter id="shadow">
      <feDropShadow dx="0" dy="2" stdDeviation="2" flood-color="black" flood-opacity="0.3" />
    </filter>
  </defs>
  <!-- Base Shape -->
  <rect x="1" y="1" width="22" height="22" rx="6" fill="url(#bg)" filter="url(#shadow)" />
  <!-- Glass Reflection -->
  <path d="M 1 7 Q 1 1 7 1 L 17 1 Q 23 1 23 7 L 23 12 Q 12 10 1 12 Z" fill="white" fill-opacity="0.15" />
  <!-- Inner Content -->
  <path d="M23.55 5.067c-1.2038-.002-2.1806.973-2.1806 2.1765v4.8676c0 .972-.8035 1.7594-1.7597 1.7594-.568 0-1.1352-.286-1.4718-.7659l-4.9713-7.1003c-.4125-.5896-1.0837-.941-1.8103-.941-1.1334 0-2.1533.9635-2.1533 2.153v4.8957c0 .972-.7969 1.7594-1.7596 1.7594-.57 0-1.1363-.286-1.4728-.7658L.4076 5.1598C.2822 4.9798 0 5.0688 0 5.2882v4.2452c0 .2147.0656.4228.1884.599l5.4748 7.8183c.3234.462.8006.8052 1.3509.9298 1.3771.313 2.6446-.747 2.6446-2.0977v-4.893c0-.972.7875-1.7593 1.7596-1.7593h.003a1.798 1.798 0 0 1 1.4718.7658l4.9723 7.0994c.4135.5905 1.05.941 1.8093.941 1.1587 0 2.1515-.9645 2.1515-2.153v-4.8948c0-.972.7875-1.7594 1.7596-1.7594h.194a.22.22 0 0 0 .2204-.2202v-4.622a.22.22 0 0 0-.2203-.2203Z" fill="white" transform="scale(0.55) translate(9 9)" />
  <!-- Border -->
  <rect x="1" y="1" width="22" height="22" rx="6" fill="none" stroke="url(#border)" stroke-width="0.5" />
</svg>